<svg width="1000" height="1000" viewBox="0 0 1000 1000" fill="none" xmlns="http://www.w3.org/2000/svg">
<path d="M709.8 206.6C645.4 272.1 580.9 337.8 515.6 404.2C507 412.9 493.2 413 484.6 404.2C419.6 338.2 354.9 272.4 290.1 206.6C281.5 197.9 267.7 198 259.2 206.7C243.5 222.9 228.1 239 212.1 255.5C203.6 264.3 203.8 278.5 212.3 287.2C275.4 351.4 340.2 417.3 405.9 484.2C414.5 492.9 414.4 507 405.9 515.8C340.7 582.2 275.7 648.3 211.2 713.9C202.7 722.6 202.7 736.7 211.4 745.3L259.2 793.2C267.8 801.8 281.8 801.8 290.3 793.1L484.5 595.8C493.1 587.1 506.9 587.1 515.5 595.8C580.2 661.6 644.7 727.2 709.7 793.3C718.3 802 732.2 802.1 740.7 793.4C756.7 777.2 772.4 761.2 788.3 745.1C796.9 736.4 796.9 722.2 788.4 713.5C724.6 648.5 659.9 582.6 594.2 515.7C585.6 507 585.6 492.8 594.2 484.1C659.4 417.7 724.3 351.6 788.7 285.9C797.3 277.2 797.2 263.1 788.6 254.4L740.8 206.3C732.3 197.8 718.4 197.9 709.8 206.6Z" fill="white"/>
</svg>
