<svg width="34" height="34" viewBox="0 0 34 34" fill="none" xmlns="http://www.w3.org/2000/svg">
<path d="M16.5523 6.24688C19.7923 3.33791 24.7992 3.43446 27.9206 6.56136C31.0406 9.68964 31.1482 14.6717 28.2461 17.9214L16.5495 29.6345L4.85575 17.9214C1.95368 14.6717 2.06265 9.68136 5.18127 6.56136C8.30541 3.4386 13.3026 3.33377 16.5523 6.24688ZM25.9675 8.51033C23.8985 6.4386 20.5606 6.35446 18.3951 8.29929L16.5537 9.9517L14.7109 8.30067C12.5385 6.35308 9.20748 6.4386 7.13299 8.51308C5.07782 10.5683 4.97437 13.8579 6.86817 16.0317L16.5509 25.7296L26.2337 16.0331C28.1289 13.8579 28.0254 10.5724 25.9675 8.51033Z" fill="#141213"/>
</svg>
