<svg width="34" height="34" viewBox="0 0 34 34" fill="none" xmlns="http://www.w3.org/2000/svg">
<path d="M18.7261 23.822L11.6778 19.9779C11.0012 20.6495 10.141 21.1057 9.2055 21.2891C8.27002 21.4725 7.30118 21.3748 6.42113 21.0084C5.54108 20.6419 4.78922 20.0231 4.26034 19.23C3.73145 18.4369 3.44922 17.5049 3.44922 16.5517C3.44922 15.5984 3.73145 14.6664 4.26034 13.8733C4.78922 13.0802 5.54108 12.4614 6.42113 12.095C7.30118 11.7285 8.27002 11.6309 9.2055 11.8142C10.141 11.9976 11.0012 12.4539 11.6778 13.1255L18.7261 9.28132C18.4843 8.14716 18.6589 6.96388 19.2179 5.94787C19.7769 4.93186 20.6829 4.15102 21.7703 3.74812C22.8577 3.34523 24.0538 3.34721 25.1399 3.75371C26.2259 4.16021 27.1294 4.94406 27.685 5.96192C28.2406 6.97978 28.4113 8.16363 28.1658 9.29698C27.9203 10.4303 27.275 11.4374 26.348 12.1341C25.421 12.8309 24.2742 13.1706 23.1173 13.0912C21.9603 13.0119 20.8707 12.5188 20.0474 11.702L12.9992 15.5461C13.1398 16.2091 13.1398 16.8942 12.9992 17.5572L20.0474 21.4013C20.8707 20.5846 21.9603 20.0914 23.1173 20.0121C24.2742 19.9327 25.421 20.2725 26.348 20.9692C27.275 21.6659 27.9203 22.673 28.1658 23.8063C28.4113 24.9397 28.2406 26.1235 27.685 27.1414C27.1294 28.1593 26.2259 28.9431 25.1399 29.3496C24.0538 29.7561 22.8577 29.7581 21.7703 29.3552C20.6829 28.9523 19.7769 28.1715 19.2179 27.1555C18.6589 26.1394 18.4843 24.9562 18.7261 23.822Z" fill="#141213"/>
</svg>
